<svg width="32" height="38" viewBox="0 0 32 38" fill="none" xmlns="http://www.w3.org/2000/svg">
<g filter="url(#filter0_d_2494_636)">
<path d="M18.4487 14.3162C18.6234 13.7923 18.3402 13.226 17.8163 13.0513C17.2923 12.8767 16.726 13.1598 16.5513 13.6838L13.5513 22.6838C13.3767 23.2077 13.6599 23.774 14.1838 23.9487C14.7077 24.1233 15.2741 23.8402 15.4487 23.3162L18.4487 14.3162Z" fill="#62D84E"/>
<path d="M12.2071 15.2929C12.5976 15.6834 12.5976 16.3166 12.2071 16.7071L10.4142 18.5L12.2071 20.2929C12.5976 20.6834 12.5976 21.3166 12.2071 21.7071C11.8166 22.0976 11.1834 22.0976 10.7929 21.7071L8.29289 19.2071C7.90237 18.8166 7.90237 18.1834 8.29289 17.7929L10.7929 15.2929C11.1834 14.9024 11.8166 14.9024 12.2071 15.2929Z" fill="#62D84E"/>
<path d="M19.7929 15.2929C19.4024 15.6834 19.4024 16.3166 19.7929 16.7071L21.5858 18.5L19.7929 20.2929C19.4024 20.6834 19.4024 21.3166 19.7929 21.7071C20.1834 22.0976 20.8166 22.0976 21.2071 21.7071L23.7071 19.2071C24.0976 18.8166 24.0976 18.1834 23.7071 17.7929L21.2071 15.2929C20.8166 14.9024 20.1834 14.9024 19.7929 15.2929Z" fill="#62D84E"/>
<path d="M4 5C4 3.34315 5.34315 2 7 2H19.1716C19.9672 2 20.7303 2.31607 21.2929 2.87868L27.1213 8.70711C27.6839 9.26972 28 10.0328 28 10.8284V27C28 28.6569 26.6569 30 25 30H7C5.34315 30 4 28.6569 4 27V5ZM7 4C6.44772 4 6 4.44772 6 5V27C6 27.5523 6.44772 28 7 28H25C25.5523 28 26 27.5523 26 27V11H22C20.3431 11 19 9.65685 19 8V4H7ZM21 5.41421V8C21 8.55228 21.4477 9 22 9H24.5858L21 5.41421Z" fill="#62D84E"/>
</g>
<defs>
<filter id="filter0_d_2494_636" x="-4" y="0" width="40" height="40" filterUnits="userSpaceOnUse" color-interpolation-filters="sRGB">
<feFlood flood-opacity="0" result="BackgroundImageFix"/>
<feColorMatrix in="SourceAlpha" type="matrix" values="0 0 0 0 0 0 0 0 0 0 0 0 0 0 0 0 0 0 127 0" result="hardAlpha"/>
<feOffset dy="4"/>
<feGaussianBlur stdDeviation="2"/>
<feComposite in2="hardAlpha" operator="out"/>
<feColorMatrix type="matrix" values="0 0 0 0 0 0 0 0 0 0 0 0 0 0 0 0 0 0 0.25 0"/>
<feBlend mode="normal" in2="BackgroundImageFix" result="effect1_dropShadow_2494_636"/>
<feBlend mode="normal" in="SourceGraphic" in2="effect1_dropShadow_2494_636" result="shape"/>
</filter>
</defs>
</svg>
